<mxfile host="Electron" modified="2023-12-14T04:05:20.992Z" agent="Mozilla/5.0 (X11; Linux x86_64) AppleWebKit/537.36 (KHTML, like Gecko) draw.io/22.0.3 Chrome/114.0.5735.289 Electron/25.8.4 Safari/537.36" etag="FpZd--ARokIwTe-UEDck" version="22.0.3" type="device">
  <diagram name="Page-1" id="55a83fd1-7818-8e21-69c5-c3457e3827bb">
    <mxGraphModel dx="1432" dy="842" grid="1" gridSize="10" guides="1" tooltips="1" connect="1" arrows="1" fold="1" page="1" pageScale="1" pageWidth="1100" pageHeight="850" background="none" math="0" shadow="0">
      <root>
        <mxCell id="0" />
        <mxCell id="1" parent="0" />
        <mxCell id="-uzS7G7F988NouSXs-7I-8" style="edgeStyle=orthogonalEdgeStyle;rounded=0;orthogonalLoop=1;jettySize=auto;html=1;" edge="1" parent="1" source="-uzS7G7F988NouSXs-7I-6" target="69ecfefc5c41e42c-3">
          <mxGeometry relative="1" as="geometry" />
        </mxCell>
        <mxCell id="-uzS7G7F988NouSXs-7I-6" value="Host 10.1.2.100&lt;br&gt;" style="rounded=0;whiteSpace=wrap;html=1;fillColor=#fff2cc;strokeColor=#d6b656;labelPosition=center;verticalLabelPosition=bottom;align=center;verticalAlign=top;" vertex="1" parent="1">
          <mxGeometry x="30" y="20" width="360" height="170" as="geometry" />
        </mxCell>
        <mxCell id="69ecfefc5c41e42c-2" value="Internet" style="image;html=1;labelBackgroundColor=#ffffff;image=img/lib/clip_art/networking/Cloud_128x128.png;rounded=1;shadow=0;comic=0;strokeWidth=2;fontSize=22;labelPosition=center;verticalLabelPosition=top;align=center;verticalAlign=bottom;" parent="1" vertex="1">
          <mxGeometry x="390" y="300" width="80" height="80" as="geometry" />
        </mxCell>
        <mxCell id="69ecfefc5c41e42c-19" style="edgeStyle=none;rounded=0;html=1;labelBackgroundColor=none;endArrow=none;strokeWidth=2;fontFamily=Verdana;fontSize=22" parent="1" source="69ecfefc5c41e42c-3" target="69ecfefc5c41e42c-2" edge="1">
          <mxGeometry relative="1" as="geometry" />
        </mxCell>
        <mxCell id="69ecfefc5c41e42c-3" value="Firewall" style="image;html=1;labelBackgroundColor=#ffffff;image=img/lib/clip_art/networking/Firewall_128x128.png;rounded=1;shadow=0;comic=0;strokeWidth=2;fontSize=22;labelPosition=right;verticalLabelPosition=middle;align=left;verticalAlign=middle;" parent="1" vertex="1">
          <mxGeometry x="135" y="290" width="80" height="80" as="geometry" />
        </mxCell>
        <mxCell id="-uzS7G7F988NouSXs-7I-4" value="VM1&lt;br&gt;192.168.2.100" style="image;sketch=0;aspect=fixed;html=1;points=[];align=center;fontSize=12;image=img/lib/mscae/Virtual_Machine.svg;" vertex="1" parent="1">
          <mxGeometry x="135" y="80" width="50" height="46" as="geometry" />
        </mxCell>
        <mxCell id="-uzS7G7F988NouSXs-7I-5" value="VM1&lt;br&gt;192.168.2.100" style="image;sketch=0;aspect=fixed;html=1;points=[];align=center;fontSize=12;image=img/lib/mscae/Virtual_Machine.svg;" vertex="1" parent="1">
          <mxGeometry x="230" y="80" width="50" height="46" as="geometry" />
        </mxCell>
        <mxCell id="-uzS7G7F988NouSXs-7I-9" style="edgeStyle=orthogonalEdgeStyle;rounded=0;orthogonalLoop=1;jettySize=auto;html=1;" edge="1" parent="1" source="-uzS7G7F988NouSXs-7I-7" target="69ecfefc5c41e42c-3">
          <mxGeometry relative="1" as="geometry">
            <Array as="points">
              <mxPoint x="455" y="240" />
              <mxPoint x="300" y="240" />
              <mxPoint x="300" y="290" />
            </Array>
          </mxGeometry>
        </mxCell>
        <mxCell id="-uzS7G7F988NouSXs-7I-7" value="VM3&lt;br&gt;10.1.2.101" style="image;sketch=0;aspect=fixed;html=1;points=[];align=center;fontSize=12;image=img/lib/mscae/Virtual_Machine.svg;" vertex="1" parent="1">
          <mxGeometry x="430" y="81" width="50" height="46" as="geometry" />
        </mxCell>
        <mxCell id="-uzS7G7F988NouSXs-7I-10" value="NAT" style="text;strokeColor=none;align=center;fillColor=none;html=1;verticalAlign=middle;whiteSpace=wrap;rounded=0;fontColor=#FF3333;fontSize=33;" vertex="1" parent="1">
          <mxGeometry x="170" y="30" width="60" height="30" as="geometry" />
        </mxCell>
        <mxCell id="-uzS7G7F988NouSXs-7I-13" value="橋接" style="text;strokeColor=none;align=center;fillColor=none;html=1;verticalAlign=middle;whiteSpace=wrap;rounded=0;fontColor=#FF3333;fontSize=33;" vertex="1" parent="1">
          <mxGeometry x="405" y="30" width="100" height="30" as="geometry" />
        </mxCell>
      </root>
    </mxGraphModel>
  </diagram>
</mxfile>
